<svg xmlns="http://www.w3.org/2000/svg" xmlns:xlink="http://www.w3.org/1999/xlink" width="256" height="256" viewBox="0 0 256 256" fill="none">
<path d="M128 35C76.664 35 35 76.664 35 128C35 179.336 76.664 221 128 221C179.336 221 221 179.336 221 128C221 76.664 179.336 35 128 35ZM118.7 201.752C81.965 197.195 53.6 165.944 53.6 128C53.6 122.234 54.3423 116.745 55.5513 111.351L100.1 155.9L100.1 165.2C100.1 175.43 108.47 183.8 118.7 183.8L118.7 201.752ZM182.87 178.129C180.452 170.596 173.57 165.2 165.2 165.2L155.9 165.2L155.9 137.3C155.9 132.185 151.715 128 146.6 128L90.8 128L90.8 109.4L109.4 109.4C114.515 109.4 118.7 105.215 118.7 100.1L118.7 81.5L137.3 81.5C147.53 81.5 155.9 73.1301 155.9 62.9L155.9 59.0887C183.149 70.1556 202.4 96.845 202.4 128C202.4 147.344 194.96 164.923 182.87 178.129Z"   fill="#2472E7" >
</path>
<path    stroke="rgba(36, 114, 231, 1)" stroke-width="16" stroke-linejoin="round" stroke-linecap="round"  d="M200.598 87C223.025 88.9095 238.422 95.6259 241.461 106.691C247.54 128.824 201.887 159.986 139.503 176.295C77.1188 192.604 21.6167 187.877 15.5382 165.744C12.3535 154.148 23.374 140.074 43.5543 126.956">
</path>
</svg>
