<svg xmlns="http://www.w3.org/2000/svg" xmlns:xlink="http://www.w3.org/1999/xlink" width="16" height="16" viewBox="0 0 16 16" fill="none">
<path d="M8 1C4.136 1 1 4.136 1 8C1 11.864 4.136 15 8 15C11.864 15 15 11.864 15 8C15 4.136 11.864 1 8 1ZM7.3 13.5512C4.535 13.2082 2.4 10.856 2.4 8C2.4 7.56601 2.45587 7.15287 2.54688 6.74687L5.9 10.1L5.9 10.8C5.9 11.57 6.52999 12.2 7.3 12.2L7.3 13.5512ZM12.13 11.7731C11.948 11.2061 11.43 10.8 10.8 10.8L10.1 10.8L10.1 8.7C10.1 8.315 9.785 8 9.4 8L5.2 8L5.2 6.6L6.6 6.6C6.985 6.6 7.3 6.285 7.3 5.9L7.3 4.5L8.7 4.5C9.47001 4.5 10.1 3.87001 10.1 3.1L10.1 2.81312C12.151 3.64612 13.6 5.655 13.6 8C13.6 9.456 13.04 10.7791 12.13 11.7731Z"   fill="#389FD6" >
</path>
</svg>
